<svg width="512" height="512" viewBox="0 0 512 512" fill="none" xmlns="http://www.w3.org/2000/svg">
<path d="M459.5 440.6C469 448.5 482.3 450.3 493.6 445C504.9 439.7 512 428.4 512 416V96C512 83.6 504.8 72.3 493.6 67C482.4 61.7 469.1 63.4 459.5 71.4L288 214.3V256V297.7L459.5 440.6ZM256 352V256V128V96C256 83.6 248.8 72.3 237.6 67C226.4 61.7 213.1 63.4 203.5 71.4L11.5 231.4C4.2 237.5 0 246.5 0 256C0 265.5 4.2 274.5 11.5 280.6L203.5 440.6C213 448.5 226.3 450.3 237.6 445C248.9 439.7 256 428.4 256 416V352Z" fill="white"/>
</svg>
