<svg width="119" height="27" viewBox="0 0 119 27" fill="none" xmlns="http://www.w3.org/2000/svg">
<path d="M14.72 13.99C14.72 16.3 14.67 17.93 14.56 18.89C14.45 19.85 14.11 20.73 13.54 21.52C12.97 22.31 12.2 22.92 11.22 23.35C10.24 23.78 9.10998 23.99 7.81998 23.99C6.52998 23.99 5.48999 23.79 4.50999 23.39C3.52999 22.99 2.74999 22.39 2.14999 21.58C1.55999 20.78 1.19998 19.9 1.08998 18.96C0.979981 18.02 0.919983 16.36 0.919983 14V10.07C0.919983 7.76001 0.969987 6.13 1.07999 5.17C1.18999 4.21 1.52998 3.32999 2.09998 2.53999C2.66998 1.74999 3.43998 1.14001 4.41998 0.710007C5.38998 0.280007 6.52998 0.0700073 7.81998 0.0700073C9.04998 0.0700073 10.15 0.269998 11.13 0.669998C12.11 1.07 12.89 1.67 13.49 2.48C14.08 3.28 14.44 4.16001 14.55 5.10001C14.66 6.04001 14.72 7.7 14.72 10.06V13.99ZM8.74998 6.45C8.74998 5.38 8.68998 4.69999 8.56998 4.39999C8.44998 4.09999 8.20998 3.95 7.83998 3.95C7.52998 3.95 7.28999 4.07 7.11999 4.31C6.94999 4.55 6.86999 5.26 6.86999 6.44V17.16C6.86999 18.49 6.91998 19.32 7.02998 19.63C7.13998 19.94 7.38999 20.1 7.78999 20.1C8.18999 20.1 8.45998 19.92 8.56998 19.56C8.67998 19.2 8.73998 18.35 8.73998 16.99V6.44L8.74998 6.45Z" fill="#221F20"/>
<path d="M29.8 0.550003V23.5H24.07V22.14C23.52 22.71 22.94 23.13 22.34 23.42C21.74 23.71 21.1 23.85 20.44 23.85C19.55 23.85 18.78 23.62 18.13 23.15C17.48 22.68 17.06 22.14 16.88 21.53C16.7 20.92 16.6 19.91 16.6 18.52V9.72C16.6 8.27 16.69 7.25 16.88 6.64C17.07 6.03 17.49 5.5 18.15 5.05C18.81 4.6 19.6 4.36 20.52 4.36C21.23 4.36 21.88 4.49001 22.47 4.74001C23.06 5.00001 23.6 5.38 24.08 5.89V0.559998H29.81L29.8 0.550003ZM24.07 9.42999C24.07 8.73999 24.01 8.27999 23.89 8.03999C23.77 7.79999 23.54 7.69 23.19 7.69C22.84 7.69 22.62 7.79999 22.5 8.00999C22.38 8.21999 22.32 8.7 22.32 9.44V18.65C22.32 19.42 22.38 19.92 22.49 20.16C22.6 20.4 22.82 20.52 23.14 20.52C23.51 20.52 23.75 20.39 23.88 20.12C24.01 19.85 24.06 19.19 24.06 18.14V9.44L24.07 9.42999Z" fill="#221F20"/>
<path d="M44.83 14.43H37.42V18.5C37.42 19.35 37.48 19.9 37.6 20.15C37.72 20.4 37.96 20.52 38.31 20.52C38.74 20.52 39.04 20.36 39.18 20.03C39.33 19.7 39.4 19.07 39.4 18.14V15.66H44.83V17.05C44.83 18.21 44.76 19.11 44.61 19.73C44.46 20.35 44.12 21.02 43.58 21.73C43.04 22.44 42.36 22.97 41.53 23.32C40.7 23.67 39.67 23.85 38.42 23.85C37.17 23.85 36.14 23.67 35.22 23.33C34.29 22.98 33.57 22.5 33.06 21.89C32.55 21.28 32.19 20.61 31.99 19.88C31.79 19.15 31.69 18.08 31.69 16.68V11.19C31.69 9.55 31.91 8.25 32.36 7.3C32.81 6.35 33.53 5.62 34.54 5.12C35.55 4.61 36.71 4.36 38.03 4.36C39.64 4.36 40.96 4.66 42.01 5.27C43.05 5.88 43.79 6.69 44.21 7.69C44.63 8.7 44.84 10.11 44.84 11.94V14.43H44.83ZM39.09 11.37V9.99001C39.09 9.02001 39.04 8.39001 38.93 8.10001C38.83 7.82001 38.61 7.67 38.29 7.67C37.89 7.67 37.65 7.79 37.55 8.03C37.46 8.27 37.41 8.92 37.41 9.98V11.36H39.08L39.09 11.37Z" fill="#221F20"/>
<path d="M58.4 10.7H53.32V9.67999C53.32 8.80999 53.27 8.26 53.17 8.03C53.07 7.8 52.82 7.67999 52.43 7.67999C52.11 7.67999 51.87 7.79 51.71 8C51.55 8.21 51.47 8.53001 51.47 8.96001C51.47 9.54001 51.51 9.96 51.59 10.23C51.67 10.5 51.91 10.79 52.31 11.12C52.71 11.44 53.54 11.91 54.78 12.52C56.44 13.33 57.53 14.1 58.05 14.82C58.57 15.54 58.83 16.58 58.83 17.95C58.83 19.48 58.63 20.64 58.24 21.42C57.84 22.2 57.18 22.8 56.25 23.22C55.32 23.64 54.2 23.85 52.88 23.85C51.42 23.85 50.18 23.62 49.14 23.17C48.1 22.72 47.39 22.1 47.01 21.33C46.62 20.55 46.43 19.38 46.43 17.81V16.9H51.5V18.09C51.5 19.1 51.56 19.76 51.69 20.06C51.82 20.36 52.07 20.51 52.45 20.51C52.86 20.51 53.14 20.41 53.3 20.21C53.46 20.01 53.54 19.58 53.54 18.93C53.54 18.03 53.44 17.47 53.23 17.24C53.01 17.01 51.9 16.34 49.9 15.23C48.22 14.28 47.19 13.43 46.82 12.66C46.45 11.89 46.27 10.98 46.27 9.92C46.27 8.42 46.47 7.31001 46.86 6.60001C47.26 5.89001 47.93 5.34 48.88 4.95C49.83 4.56 50.93 4.37 52.19 4.37C53.45 4.37 54.5 4.53 55.37 4.84C56.24 5.16 56.92 5.58 57.38 6.09C57.85 6.61 58.13 7.08999 58.23 7.53999C58.33 7.97999 58.38 8.68 58.38 9.62V10.71L58.4 10.7Z" fill="#221F20"/>
<path d="M66.27 0.550003V3.53999H60.37V0.550003H66.27ZM66.27 4.69V23.5H60.37V4.69H66.27Z" fill="#221F20"/>
<path d="M81.34 4.69V19.18C81.34 21.14 81.3 22.4 81.21 22.97C81.12 23.54 80.8 24.15 80.25 24.78C79.7 25.42 78.94 25.9 77.96 26.24C76.98 26.58 75.75 26.74 74.27 26.74C72.45 26.74 70.98 26.43 69.88 25.81C68.77 25.19 68.2 23.97 68.16 22.16H73.72C73.72 22.99 74.02 23.41 74.63 23.41C75.06 23.41 75.35 23.28 75.49 23.03C75.63 22.77 75.7 22.24 75.7 21.43V20.01C75.21 20.46 74.69 20.79 74.15 21.02C73.61 21.25 73.04 21.36 72.44 21.36C71.41 21.36 70.56 21.15 69.9 20.74C69.23 20.32 68.78 19.78 68.53 19.1C68.28 18.42 68.16 17.46 68.16 16.21V9.38C68.16 7.59 68.48 6.31 69.12 5.52C69.76 4.73 70.74 4.34 72.05 4.34C72.77 4.34 73.42 4.49 74.01 4.78C74.6 5.07 75.13 5.51001 75.59 6.10001L76 4.67999H81.33L81.34 4.69ZM75.6 9.67999C75.6 8.81999 75.55 8.26999 75.45 8.03999C75.35 7.79999 75.13 7.69 74.79 7.69C74.45 7.69 74.23 7.82 74.09 8.09C73.95 8.36 73.88 8.88999 73.88 9.67999V16C73.88 16.84 73.93 17.39 74.04 17.64C74.14 17.89 74.36 18.02 74.69 18.02C75.07 18.02 75.31 17.87 75.43 17.57C75.55 17.27 75.6 16.58 75.6 15.51V9.67999Z" fill="#221F20"/>
<path d="M85.05 8.67C86.15 8.55 87.72 8.22001 88.61 9.07001C89.5 9.92001 89.76 11.6 89.96 12.78C90.48 15.85 90.42 19.06 90.58 22.16C90.7 24.56 94.32 24.59 94.33 22.16C94.33 19.58 94.4 17.01 94.53 14.44C94.6 13.04 94.35 9.72 96.08 9.06C97.54 8.5 98.63 11.74 99.07 12.66C100 14.6 100.4 16.72 101.27 18.68C102.9 22.35 106.94 24.43 110.88 23.77C114.82 23.11 117.6 19.55 118.01 15.7C118.12 14.69 117.07 13.82 116.13 13.82C115.03 13.82 114.36 14.68 114.25 15.7C113.88 19.21 109.95 21.17 106.91 19.53C105.03 18.52 104.49 16.77 103.91 14.84C103.29 12.77 102.39 10.79 101.36 8.89C100.5 7.3 99.26 5.7 97.39 5.31C95.17 4.84 93.03 6.17001 91.95 8.07001C90.87 9.97001 90.88 12.31 90.78 14.43C90.65 17 90.59 19.58 90.58 22.15H94.33C94.13 18.16 94.29 13.89 93.19 10.02C92.72 8.37 91.93 6.74999 90.47 5.75999C88.86 4.66999 86.91 4.7 85.06 4.91C84.05 5.02 83.18 5.68999 83.18 6.78999C83.18 7.71999 84.04 8.78 85.06 8.67H85.05Z" fill="#E8914C"/>
</svg>
