<svg width="123" height="13" viewBox="0 0 123 13" fill="none" xmlns="http://www.w3.org/2000/svg">
<path d="M0.409607 1.48921H7.08344L6.69086 3.59859H5.88226L5.9057 2.30367L5.74164 2.14546H4.38226L3.14594 8.71382L3.2807 8.87788L4.09515 8.95406V9.53999H0.638123V8.95406L1.47015 8.8896L1.63422 8.7021L2.84711 2.14546H1.49359L1.27679 2.30367L0.843201 3.59859H0.00531006L0.409607 1.48921ZM9.46234 0.709915H10.0014C9.93109 1.00288 9.85883 1.31734 9.78461 1.65327C9.71429 1.98921 9.63812 2.36226 9.55609 2.77242L9.14594 4.79976C9.63031 4.40132 10.0639 4.10445 10.4467 3.90913C10.8334 3.70992 11.1733 3.61031 11.4662 3.61031C11.8139 3.61031 12.0912 3.71577 12.2983 3.92671C12.5092 4.13374 12.6147 4.41304 12.6147 4.7646C12.6147 4.87788 12.603 5.0146 12.5795 5.17476C12.56 5.33101 12.5287 5.51851 12.4858 5.73726L12.1225 7.3896C12.0756 7.60835 12.0424 7.78804 12.0229 7.92867C12.0034 8.06538 11.9936 8.17867 11.9936 8.26851C11.9936 8.4482 12.0405 8.59468 12.1342 8.70796C12.2319 8.82124 12.353 8.87788 12.4975 8.87788C12.6108 8.87788 12.7319 8.86812 12.8608 8.84859C12.9936 8.82515 13.1362 8.79195 13.2885 8.74898V9.19429C12.9018 9.33492 12.558 9.44038 12.2573 9.5107C11.9604 9.5771 11.7006 9.61031 11.478 9.61031C11.1577 9.61031 10.9155 9.53999 10.7514 9.39937C10.5873 9.25484 10.5053 9.04195 10.5053 8.7607C10.5053 8.68257 10.5131 8.59077 10.5287 8.48531C10.5444 8.37984 10.5678 8.25874 10.5991 8.12202L11.0327 6.12984C11.0678 5.96187 11.0932 5.80952 11.1088 5.67281C11.1284 5.53609 11.1381 5.42085 11.1381 5.3271C11.1381 5.10835 11.0873 4.94038 10.9858 4.8232C10.8881 4.7021 10.7475 4.64156 10.5639 4.64156C10.3803 4.64156 10.1557 4.70992 9.89008 4.84663C9.62836 4.98335 9.34515 5.18062 9.04047 5.43843L8.29633 9.53999H6.80804L8.37836 1.71773L7.33539 1.58296L7.32367 1.16109L9.46234 0.709915ZM15.5092 6.31148C16.1303 6.28413 16.6459 6.12984 17.0561 5.84859C17.4702 5.56734 17.6772 5.23726 17.6772 4.85835C17.6772 4.67085 17.6225 4.52242 17.5131 4.41304C17.4077 4.30367 17.2651 4.24898 17.0854 4.24898C16.7573 4.24898 16.4506 4.43257 16.1655 4.79976C15.8842 5.16304 15.6655 5.66695 15.5092 6.31148ZM15.4096 6.81538C15.4096 6.8232 15.4077 6.83687 15.4037 6.8564C15.392 7.00093 15.3862 7.10835 15.3862 7.17867C15.3862 7.67867 15.4975 8.06538 15.7202 8.33882C15.9428 8.61226 16.2592 8.74898 16.6694 8.74898C16.935 8.74898 17.226 8.67867 17.5424 8.53804C17.8627 8.39351 18.1987 8.18257 18.5502 7.90523V8.63765C18.1205 8.96968 17.6928 9.22163 17.267 9.39351C16.8452 9.56148 16.4448 9.64546 16.0659 9.64546C15.4018 9.64546 14.8823 9.44429 14.5073 9.04195C14.1323 8.6396 13.9448 8.08101 13.9448 7.36617C13.9448 6.79585 14.06 6.2607 14.2905 5.7607C14.5248 5.2607 14.8608 4.82515 15.2983 4.45406C15.603 4.19624 15.9389 3.99702 16.3061 3.8564C16.6733 3.71577 17.0385 3.64546 17.4018 3.64546C17.8627 3.64546 18.226 3.76265 18.4916 3.99702C18.7573 4.2314 18.8901 4.55171 18.8901 4.95796C18.8901 5.5439 18.6147 6.00288 18.0639 6.33492C17.517 6.66304 16.7553 6.8271 15.7787 6.8271C15.7397 6.8271 15.6791 6.82515 15.5971 6.82124C15.5151 6.81734 15.4526 6.81538 15.4096 6.81538ZM26.7885 4.14937C26.7221 4.14156 26.6713 4.1357 26.6362 4.13179C26.6049 4.12788 26.5776 4.12593 26.5541 4.12593C26.0385 4.12593 25.5776 4.43843 25.1713 5.06343C24.7651 5.68843 24.562 6.42476 24.562 7.27242C24.562 7.70992 24.642 8.05367 24.8022 8.30367C24.9662 8.55367 25.1909 8.67867 25.476 8.67867C25.6635 8.67867 25.8686 8.62202 26.0912 8.50874C26.3139 8.39156 26.5444 8.22359 26.7827 8.00484L27.2983 4.87007L26.7885 4.14937ZM28.9037 0.709915H29.4077L28.2944 7.39546C28.2592 7.61812 28.2319 7.80171 28.2123 7.94624C28.1967 8.08687 28.1889 8.19429 28.1889 8.26851C28.1889 8.4482 28.2358 8.59468 28.3295 8.70796C28.4272 8.82124 28.5483 8.87788 28.6928 8.87788C28.8061 8.87788 28.9311 8.86812 29.0678 8.84859C29.2045 8.82515 29.3452 8.79195 29.4897 8.74898L29.4955 9.19429C29.0737 9.34663 28.7162 9.45796 28.4233 9.52827C28.1303 9.59859 27.8784 9.63374 27.6674 9.63374C27.3393 9.63374 27.0952 9.55367 26.935 9.39351C26.7787 9.23335 26.7006 8.98531 26.7006 8.64937V8.61421C26.3608 8.95406 26.0287 9.20992 25.7045 9.38179C25.3803 9.54976 25.0639 9.63374 24.7553 9.63374C24.2475 9.63374 23.8354 9.43257 23.519 9.03023C23.2065 8.62398 23.0502 8.08687 23.0502 7.4189C23.0502 7.00484 23.1049 6.60249 23.2143 6.21187C23.3276 5.82124 23.4936 5.45796 23.7123 5.12202C24.0287 4.62984 24.4291 4.25093 24.9135 3.98531C25.3979 3.71968 25.9291 3.58687 26.5073 3.58687C26.6557 3.58687 26.812 3.60445 26.976 3.6396C27.1401 3.67476 27.312 3.72554 27.4916 3.79195L27.8256 1.74117L26.8178 1.58296V1.16109L28.9037 0.709915ZM31.5405 6.31148C32.1616 6.28413 32.6772 6.12984 33.0873 5.84859C33.5014 5.56734 33.7084 5.23726 33.7084 4.85835C33.7084 4.67085 33.6537 4.52242 33.5444 4.41304C33.4389 4.30367 33.2963 4.24898 33.1166 4.24898C32.7885 4.24898 32.4819 4.43257 32.1967 4.79976C31.9155 5.16304 31.6967 5.66695 31.5405 6.31148ZM31.4409 6.81538C31.4409 6.8232 31.4389 6.83687 31.435 6.8564C31.4233 7.00093 31.4174 7.10835 31.4174 7.17867C31.4174 7.67867 31.5287 8.06538 31.7514 8.33882C31.9741 8.61226 32.2905 8.74898 32.7006 8.74898C32.9662 8.74898 33.2573 8.67867 33.5737 8.53804C33.894 8.39351 34.2299 8.18257 34.5815 7.90523V8.63765C34.1518 8.96968 33.7241 9.22163 33.2983 9.39351C32.8764 9.56148 32.476 9.64546 32.0971 9.64546C31.433 9.64546 30.9135 9.44429 30.5385 9.04195C30.1635 8.6396 29.976 8.08101 29.976 7.36617C29.976 6.79585 30.0912 6.2607 30.3217 5.7607C30.5561 5.2607 30.892 4.82515 31.3295 4.45406C31.6342 4.19624 31.9702 3.99702 32.3373 3.8564C32.7045 3.71577 33.0698 3.64546 33.433 3.64546C33.894 3.64546 34.2573 3.76265 34.5229 3.99702C34.7885 4.2314 34.9213 4.55171 34.9213 4.95796C34.9213 5.5439 34.6459 6.00288 34.0952 6.33492C33.5483 6.66304 32.7866 6.8271 31.81 6.8271C31.7709 6.8271 31.7104 6.82515 31.6284 6.82124C31.5463 6.81734 31.4838 6.81538 31.4409 6.81538ZM36.562 7.93452L36.3452 8.80757C36.4897 8.90913 36.6284 8.98531 36.7612 9.03609C36.894 9.08296 37.0229 9.1064 37.1479 9.1064C37.4096 9.1064 37.6245 9.02437 37.7924 8.86031C37.9643 8.69234 38.0502 8.48335 38.0502 8.23335C38.0502 7.86226 37.767 7.48726 37.2006 7.10835C37.1381 7.06538 37.0893 7.03218 37.0541 7.00874C36.5932 6.68843 36.2846 6.42671 36.1284 6.22359C35.976 6.01656 35.8998 5.78999 35.8998 5.5439C35.8998 5.00093 36.1264 4.5439 36.5795 4.17281C37.0366 3.79781 37.603 3.61031 38.2787 3.61031C38.7006 3.61031 39.0346 3.69234 39.2807 3.8564C39.5307 4.02046 39.6557 4.23921 39.6557 4.51265C39.6557 4.72749 39.5776 4.90327 39.4213 5.03999C39.269 5.17281 39.0639 5.24507 38.8061 5.25679L38.2436 4.17867C38.1733 4.16695 38.1205 4.15913 38.0854 4.15523C38.0541 4.15132 38.0268 4.14937 38.0034 4.14937C37.7534 4.14937 37.5444 4.21577 37.3764 4.34859C37.2084 4.4814 37.1245 4.64351 37.1245 4.83492C37.1245 4.97945 37.185 5.12593 37.3061 5.27437C37.4311 5.4189 37.6909 5.63374 38.0854 5.9189C38.6362 6.31343 38.9858 6.62788 39.1342 6.86226C39.2827 7.09273 39.3569 7.36226 39.3569 7.67085C39.3569 8.22163 39.1303 8.68843 38.6772 9.07124C38.2241 9.45406 37.6635 9.64546 36.9955 9.64546C36.4604 9.64546 36.0209 9.52827 35.6772 9.2939C35.3373 9.05952 35.1674 8.7607 35.1674 8.39742C35.1674 8.17867 35.2338 8.00093 35.3666 7.86421C35.5034 7.72359 35.6772 7.65327 35.8881 7.65327C36.017 7.65327 36.1362 7.67671 36.2455 7.72359C36.3588 7.77046 36.4643 7.84077 36.562 7.93452ZM42.5561 3.62202H43.0834L42.3159 7.67671C42.2924 7.80171 42.2748 7.90327 42.2631 7.9814C42.2553 8.05952 42.2514 8.12398 42.2514 8.17476C42.2514 8.3896 42.3022 8.55367 42.4037 8.66695C42.5053 8.77632 42.6518 8.83101 42.8432 8.83101C42.9291 8.83101 43.0424 8.81734 43.183 8.78999C43.3237 8.76265 43.4858 8.71968 43.6694 8.66109V9.15327C43.2631 9.31734 42.894 9.43648 42.562 9.5107C42.2299 9.58492 41.9155 9.62202 41.6186 9.62202C41.3256 9.62202 41.103 9.5439 40.9506 9.38765C40.8022 9.22749 40.728 8.99507 40.728 8.69038C40.728 8.61226 40.7358 8.51656 40.7514 8.40327C40.767 8.28609 40.7963 8.11226 40.8393 7.88179L41.4838 4.65327L40.4995 4.50093V4.07906L42.5561 3.62202ZM42.7963 0.838821C43.0424 0.838821 43.2377 0.909134 43.3823 1.04976C43.5268 1.18648 43.5991 1.37202 43.5991 1.6064C43.5991 1.86031 43.5112 2.07515 43.3354 2.25093C43.1596 2.42281 42.9428 2.50874 42.685 2.50874C42.4428 2.50874 42.2455 2.43843 42.0932 2.29781C41.9448 2.15718 41.8705 1.97554 41.8705 1.75288C41.8705 1.49117 41.9584 1.27437 42.1342 1.10249C42.31 0.926712 42.5307 0.838821 42.7963 0.838821ZM45.6674 9.19429C45.4057 9.33101 45.2123 9.48531 45.0873 9.65718C44.9623 9.83296 44.8998 10.0302 44.8998 10.249C44.8998 10.6279 45.0444 10.9404 45.3334 11.1865C45.6225 11.4326 45.9936 11.5556 46.4467 11.5556C46.8373 11.5556 47.1616 11.4658 47.4194 11.2861C47.6811 11.1064 47.812 10.8837 47.812 10.6181C47.812 10.4736 47.7514 10.3369 47.6303 10.208C47.5131 10.0791 47.3393 9.95992 47.1088 9.85054L45.6674 9.19429ZM47.8002 5.08687C47.8002 4.78609 47.7455 4.55952 47.6362 4.40718C47.5268 4.25484 47.3627 4.17867 47.144 4.17867C46.8354 4.17867 46.5561 4.37788 46.3061 4.77632C46.0561 5.17085 45.9311 5.62593 45.9311 6.14156C45.9311 6.43452 45.9897 6.66304 46.1069 6.8271C46.2241 6.98726 46.3901 7.06734 46.6049 7.06734C46.9096 7.06734 47.185 6.87007 47.4311 6.47554C47.6772 6.0771 47.8002 5.61421 47.8002 5.08687ZM48.6557 3.98531H50.2963V4.6064H49.0717C49.1264 4.78609 49.1616 4.92671 49.1772 5.02827C49.1967 5.12593 49.2065 5.21382 49.2065 5.29195C49.2065 5.95992 48.9506 6.51265 48.4389 6.95015C47.9311 7.38374 47.2807 7.60249 46.4877 7.6064C46.433 7.68843 46.394 7.76656 46.3705 7.84077C46.3471 7.91499 46.3354 7.98921 46.3354 8.06343V8.11031L48.1518 8.97749C48.5424 9.16499 48.8217 9.35835 48.9897 9.55757C49.1577 9.75679 49.2416 9.99507 49.2416 10.2724C49.2416 10.788 48.9291 11.2294 48.3041 11.5966C47.683 11.9677 46.9155 12.1533 46.0014 12.1533C45.2787 12.1533 44.7006 12.0068 44.267 11.7138C43.8334 11.4248 43.6166 11.04 43.6166 10.5595C43.6166 10.1923 43.7553 9.86617 44.0327 9.58101C44.3139 9.29976 44.7592 9.03804 45.3686 8.79585V8.74898C45.3686 8.54195 45.4077 8.34077 45.4858 8.14546C45.5639 7.95015 45.6928 7.74312 45.8725 7.52437C45.435 7.40718 45.0971 7.21382 44.8588 6.94429C44.6205 6.67085 44.5014 6.34859 44.5014 5.97749C44.5014 5.30171 44.7514 4.74312 45.2514 4.30171C45.7553 3.8564 46.394 3.63374 47.1674 3.63374C47.4135 3.63374 47.6596 3.66304 47.9057 3.72163C48.1518 3.78023 48.4018 3.86812 48.6557 3.98531ZM52.6108 3.62202H53.0795L52.8393 4.81148C53.3471 4.39742 53.7924 4.09663 54.1752 3.90913C54.558 3.71773 54.9116 3.62202 55.2358 3.62202C55.5561 3.62202 55.8178 3.7314 56.0209 3.95015C56.228 4.16499 56.3315 4.4482 56.3315 4.79976C56.3315 4.90913 56.3198 5.0439 56.2963 5.20406C56.2729 5.36031 56.2397 5.54195 56.1967 5.74898L55.8393 7.3896C55.7924 7.62007 55.7573 7.80562 55.7338 7.94624C55.7143 8.08296 55.7045 8.19429 55.7045 8.28023C55.7045 8.4521 55.7514 8.59468 55.8452 8.70796C55.9428 8.82124 56.0639 8.87788 56.2084 8.87788C56.3256 8.87788 56.4487 8.86812 56.5776 8.84859C56.7104 8.82515 56.851 8.79195 56.9995 8.74898V9.20601C56.6401 9.33882 56.3061 9.44038 55.9975 9.5107C55.6928 9.5771 55.4233 9.61031 55.1889 9.61031C54.8764 9.61031 54.6381 9.53999 54.4741 9.39937C54.31 9.25484 54.228 9.04585 54.228 8.77242C54.228 8.6982 54.2338 8.61617 54.2455 8.52632C54.2573 8.43257 54.2807 8.29781 54.3159 8.12202L54.7436 6.1357C54.7787 5.95992 54.8061 5.80562 54.8256 5.67281C54.8452 5.53999 54.8549 5.42867 54.8549 5.33882C54.8549 5.12007 54.8022 4.95015 54.6967 4.82906C54.5912 4.70406 54.4467 4.64156 54.2631 4.64156C54.0795 4.64156 53.8588 4.70992 53.601 4.84663C53.3471 4.98335 53.0678 5.18062 52.7631 5.43843L52.0541 9.53999H50.5307L51.4916 4.67085L50.4955 4.53609V4.11421L52.6108 3.62202ZM59.185 6.31148C59.8061 6.28413 60.3217 6.12984 60.7319 5.84859C61.1459 5.56734 61.353 5.23726 61.353 4.85835C61.353 4.67085 61.2983 4.52242 61.1889 4.41304C61.0834 4.30367 60.9409 4.24898 60.7612 4.24898C60.433 4.24898 60.1264 4.43257 59.8412 4.79976C59.56 5.16304 59.3412 5.66695 59.185 6.31148ZM59.0854 6.81538C59.0854 6.8232 59.0834 6.83687 59.0795 6.8564C59.0678 7.00093 59.062 7.10835 59.062 7.17867C59.062 7.67867 59.1733 8.06538 59.3959 8.33882C59.6186 8.61226 59.935 8.74898 60.3452 8.74898C60.6108 8.74898 60.9018 8.67867 61.2182 8.53804C61.5385 8.39351 61.8745 8.18257 62.226 7.90523V8.63765C61.7963 8.96968 61.3686 9.22163 60.9428 9.39351C60.5209 9.56148 60.1205 9.64546 59.7416 9.64546C59.0776 9.64546 58.558 9.44429 58.183 9.04195C57.808 8.6396 57.6205 8.08101 57.6205 7.36617C57.6205 6.79585 57.7358 6.2607 57.9662 5.7607C58.2006 5.2607 58.5366 4.82515 58.9741 4.45406C59.2787 4.19624 59.6147 3.99702 59.9819 3.8564C60.3491 3.71577 60.7143 3.64546 61.0776 3.64546C61.5385 3.64546 61.9018 3.76265 62.1674 3.99702C62.433 4.2314 62.5659 4.55171 62.5659 4.95796C62.5659 5.5439 62.2905 6.00288 61.7397 6.33492C61.1928 6.66304 60.4311 6.8271 59.4545 6.8271C59.4155 6.8271 59.3549 6.82515 59.2729 6.82124C59.1909 6.81734 59.1284 6.81538 59.0854 6.81538ZM65.3373 3.62202H65.7534L65.4194 5.23335C65.7944 4.70992 66.1577 4.31148 66.5092 4.03804C66.8608 3.7607 67.1811 3.62202 67.4702 3.62202C67.7319 3.62202 67.9448 3.70601 68.1088 3.87398C68.2768 4.03804 68.3608 4.25093 68.3608 4.51265C68.3608 4.80952 68.2514 5.05367 68.0327 5.24507C67.8178 5.43648 67.5385 5.53218 67.1948 5.53218H67.1713L66.8491 4.61812C66.3803 4.81343 66.019 5.07906 65.7651 5.41499C65.5151 5.75093 65.3432 6.1982 65.2495 6.75679L64.7807 9.53999H63.3041L64.2651 4.67085L63.269 4.52437V4.10249L65.3373 3.62202ZM69.31 4.79976L69.1166 4.44234C69.5737 4.18843 69.9233 3.90718 70.1655 3.59859C70.4077 3.28999 70.5385 2.95992 70.558 2.60835L69.8373 2.60249C69.7905 2.52827 69.7534 2.45601 69.726 2.3857C69.7026 2.31148 69.6909 2.24117 69.6909 2.17476C69.6909 1.8896 69.7866 1.64937 69.978 1.45406C70.1733 1.25874 70.4096 1.16109 70.687 1.16109C70.9604 1.16109 71.1752 1.24702 71.3315 1.4189C71.4877 1.58687 71.5659 1.81734 71.5659 2.11031C71.5659 2.64156 71.3608 3.15327 70.9506 3.64546C70.5405 4.13765 69.9936 4.52242 69.31 4.79976ZM72.7377 7.93452L72.5209 8.80757C72.6655 8.90913 72.8041 8.98531 72.937 9.03609C73.0698 9.08296 73.1987 9.1064 73.3237 9.1064C73.5854 9.1064 73.8002 9.02437 73.9682 8.86031C74.1401 8.69234 74.226 8.48335 74.226 8.23335C74.226 7.86226 73.9428 7.48726 73.3764 7.10835C73.3139 7.06538 73.2651 7.03218 73.2299 7.00874C72.769 6.68843 72.4604 6.42671 72.3041 6.22359C72.1518 6.01656 72.0756 5.78999 72.0756 5.5439C72.0756 5.00093 72.3022 4.5439 72.7553 4.17281C73.2123 3.79781 73.7787 3.61031 74.4545 3.61031C74.8764 3.61031 75.2104 3.69234 75.4565 3.8564C75.7065 4.02046 75.8315 4.23921 75.8315 4.51265C75.8315 4.72749 75.7534 4.90327 75.5971 5.03999C75.4448 5.17281 75.2397 5.24507 74.9819 5.25679L74.4194 4.17867C74.3491 4.16695 74.2963 4.15913 74.2612 4.15523C74.2299 4.15132 74.2026 4.14937 74.1791 4.14937C73.9291 4.14937 73.7202 4.21577 73.5522 4.34859C73.3842 4.4814 73.3002 4.64351 73.3002 4.83492C73.3002 4.97945 73.3608 5.12593 73.4819 5.27437C73.6069 5.4189 73.8666 5.63374 74.2612 5.9189C74.812 6.31343 75.1616 6.62788 75.31 6.86226C75.4584 7.09273 75.5327 7.36226 75.5327 7.67085C75.5327 8.22163 75.3061 8.68843 74.853 9.07124C74.3998 9.45406 73.8393 9.64546 73.1713 9.64546C72.6362 9.64546 72.1967 9.52827 71.853 9.2939C71.5131 9.05952 71.3432 8.7607 71.3432 8.39742C71.3432 8.17867 71.4096 8.00093 71.5424 7.86421C71.6791 7.72359 71.853 7.65327 72.0639 7.65327C72.1928 7.65327 72.312 7.67671 72.4213 7.72359C72.5346 7.77046 72.6401 7.84077 72.7377 7.93452ZM86.4311 4.54781C86.4311 3.76656 86.2748 3.15523 85.9623 2.71382C85.6537 2.27242 85.226 2.05171 84.6791 2.05171C84.3159 2.05171 83.9721 2.16695 83.6479 2.39742C83.3276 2.62398 83.0366 2.95601 82.7748 3.39351C82.517 3.81929 82.3159 4.30171 82.1713 4.84077C82.0268 5.37984 81.9545 5.92281 81.9545 6.46968C81.9545 7.22359 82.1166 7.82906 82.4409 8.28609C82.769 8.73921 83.2006 8.96577 83.7358 8.96577C84.0952 8.96577 84.4409 8.85054 84.7729 8.62007C85.1049 8.3857 85.4018 8.04781 85.6635 7.6064C85.9057 7.20406 86.0932 6.73531 86.226 6.20015C86.3627 5.66109 86.4311 5.11031 86.4311 4.54781ZM84.7905 1.33101C85.7905 1.33101 86.5952 1.6357 87.2045 2.24507C87.8178 2.85445 88.1245 3.65327 88.1245 4.64156C88.1245 5.25484 88.0287 5.84859 87.8373 6.42281C87.6498 6.99702 87.3784 7.51656 87.0229 7.9814C86.5932 8.53609 86.0834 8.96187 85.4936 9.25874C84.9077 9.55171 84.2768 9.6982 83.601 9.6982C82.6127 9.6982 81.8159 9.39351 81.2104 8.78413C80.6049 8.17085 80.3022 7.36226 80.3022 6.35835C80.3022 5.74507 80.3959 5.15523 80.5834 4.58882C80.7709 4.02242 81.0444 3.50093 81.4037 3.02437C81.8061 2.49312 82.3041 2.07906 82.8979 1.78218C83.4955 1.4814 84.1264 1.33101 84.7905 1.33101ZM92.5893 4.14937C92.5229 4.14156 92.4721 4.1357 92.437 4.13179C92.4057 4.12788 92.3784 4.12593 92.3549 4.12593C91.8393 4.12593 91.3784 4.43843 90.9721 5.06343C90.5659 5.68843 90.3627 6.42476 90.3627 7.27242C90.3627 7.70992 90.4428 8.05367 90.603 8.30367C90.767 8.55367 90.9916 8.67867 91.2768 8.67867C91.4643 8.67867 91.6694 8.62202 91.892 8.50874C92.1147 8.39156 92.3452 8.22359 92.5834 8.00484L93.0991 4.87007L92.5893 4.14937ZM94.7045 0.709915H95.2084L94.0952 7.39546C94.06 7.61812 94.0327 7.80171 94.0131 7.94624C93.9975 8.08687 93.9897 8.19429 93.9897 8.26851C93.9897 8.4482 94.0366 8.59468 94.1303 8.70796C94.228 8.82124 94.3491 8.87788 94.4936 8.87788C94.6069 8.87788 94.7319 8.86812 94.8686 8.84859C95.0053 8.82515 95.1459 8.79195 95.2905 8.74898L95.2963 9.19429C94.8745 9.34663 94.517 9.45796 94.2241 9.52827C93.9311 9.59859 93.6791 9.63374 93.4682 9.63374C93.1401 9.63374 92.8959 9.55367 92.7358 9.39351C92.5795 9.23335 92.5014 8.98531 92.5014 8.64937V8.61421C92.1616 8.95406 91.8295 9.20992 91.5053 9.38179C91.1811 9.54976 90.8647 9.63374 90.5561 9.63374C90.0483 9.63374 89.6362 9.43257 89.3198 9.03023C89.0073 8.62398 88.851 8.08687 88.851 7.4189C88.851 7.00484 88.9057 6.60249 89.0151 6.21187C89.1284 5.82124 89.2944 5.45796 89.5131 5.12202C89.8295 4.62984 90.2299 4.25093 90.7143 3.98531C91.1987 3.71968 91.7299 3.58687 92.308 3.58687C92.4565 3.58687 92.6127 3.60445 92.7768 3.6396C92.9409 3.67476 93.1127 3.72554 93.2924 3.79195L93.6264 1.74117L92.6186 1.58296V1.16109L94.7045 0.709915ZM97.2299 3.62202C97.4604 3.66109 97.644 3.81538 97.7807 4.08492C97.9174 4.35445 98.0366 4.81343 98.1381 5.46187L98.5483 8.07515C98.9037 7.18452 99.226 6.3896 99.5151 5.69038C99.8041 4.98726 100.093 4.29781 100.382 3.62202H100.757L101.706 3.93843V4.2607L100.997 4.65327C100.638 5.13374 100.22 5.91499 99.7436 6.99702C99.267 8.07906 98.9037 8.84273 98.6537 9.28804C98.1225 10.2451 97.6049 10.958 97.101 11.4267C96.601 11.8955 96.1069 12.1298 95.6186 12.1298C95.3412 12.1298 95.1049 12.038 94.9096 11.8544C94.7104 11.6748 94.6108 11.4599 94.6108 11.2099C94.6108 11.0029 94.6733 10.8271 94.7983 10.6826C94.9233 10.538 95.0932 10.4443 95.308 10.4013L96.1108 11.1572C96.3803 11.1337 96.6635 10.9599 96.9604 10.6357C97.2612 10.3154 97.5737 9.84663 97.8979 9.22945H97.4467L96.726 5.42671C96.6948 5.26265 96.6537 5.10445 96.603 4.9521C96.5522 4.79976 96.4936 4.65718 96.4272 4.52437L95.3784 4.43062V4.03218L97.2299 3.62202ZM102.726 7.93452L102.509 8.80757C102.654 8.90913 102.792 8.98531 102.925 9.03609C103.058 9.08296 103.187 9.1064 103.312 9.1064C103.574 9.1064 103.789 9.02437 103.956 8.86031C104.128 8.69234 104.214 8.48335 104.214 8.23335C104.214 7.86226 103.931 7.48726 103.365 7.10835C103.302 7.06538 103.253 7.03218 103.218 7.00874C102.757 6.68843 102.449 6.42671 102.292 6.22359C102.14 6.01656 102.064 5.78999 102.064 5.5439C102.064 5.00093 102.29 4.5439 102.744 4.17281C103.201 3.79781 103.767 3.61031 104.443 3.61031C104.865 3.61031 105.199 3.69234 105.445 3.8564C105.695 4.02046 105.82 4.23921 105.82 4.51265C105.82 4.72749 105.742 4.90327 105.585 5.03999C105.433 5.17281 105.228 5.24507 104.97 5.25679L104.408 4.17867C104.337 4.16695 104.285 4.15913 104.249 4.15523C104.218 4.15132 104.191 4.14937 104.167 4.14937C103.917 4.14937 103.708 4.21577 103.54 4.34859C103.372 4.4814 103.289 4.64351 103.289 4.83492C103.289 4.97945 103.349 5.12593 103.47 5.27437C103.595 5.4189 103.855 5.63374 104.249 5.9189C104.8 6.31343 105.15 6.62788 105.298 6.86226C105.447 7.09273 105.521 7.36226 105.521 7.67085C105.521 8.22163 105.294 8.68843 104.841 9.07124C104.388 9.45406 103.828 9.64546 103.16 9.64546C102.624 9.64546 102.185 9.52827 101.841 9.2939C101.501 9.05952 101.331 8.7607 101.331 8.39742C101.331 8.17867 101.398 8.00093 101.531 7.86421C101.667 7.72359 101.841 7.65327 102.052 7.65327C102.181 7.65327 102.3 7.67671 102.41 7.72359C102.523 7.77046 102.628 7.84077 102.726 7.93452ZM107.566 7.93452L107.349 8.80757C107.494 8.90913 107.632 8.98531 107.765 9.03609C107.898 9.08296 108.027 9.1064 108.152 9.1064C108.414 9.1064 108.628 9.02437 108.796 8.86031C108.968 8.69234 109.054 8.48335 109.054 8.23335C109.054 7.86226 108.771 7.48726 108.205 7.10835C108.142 7.06538 108.093 7.03218 108.058 7.00874C107.597 6.68843 107.289 6.42671 107.132 6.22359C106.98 6.01656 106.904 5.78999 106.904 5.5439C106.904 5.00093 107.13 4.5439 107.583 4.17281C108.04 3.79781 108.607 3.61031 109.283 3.61031C109.705 3.61031 110.039 3.69234 110.285 3.8564C110.535 4.02046 110.66 4.23921 110.66 4.51265C110.66 4.72749 110.581 4.90327 110.425 5.03999C110.273 5.17281 110.068 5.24507 109.81 5.25679L109.247 4.17867C109.177 4.16695 109.124 4.15913 109.089 4.15523C109.058 4.15132 109.031 4.14937 109.007 4.14937C108.757 4.14937 108.548 4.21577 108.38 4.34859C108.212 4.4814 108.128 4.64351 108.128 4.83492C108.128 4.97945 108.189 5.12593 108.31 5.27437C108.435 5.4189 108.695 5.63374 109.089 5.9189C109.64 6.31343 109.99 6.62788 110.138 6.86226C110.287 7.09273 110.361 7.36226 110.361 7.67085C110.361 8.22163 110.134 8.68843 109.681 9.07124C109.228 9.45406 108.667 9.64546 107.999 9.64546C107.464 9.64546 107.025 9.52827 106.681 9.2939C106.341 9.05952 106.171 8.7607 106.171 8.39742C106.171 8.17867 106.238 8.00093 106.371 7.86421C106.507 7.72359 106.681 7.65327 106.892 7.65327C107.021 7.65327 107.14 7.67671 107.249 7.72359C107.363 7.77046 107.468 7.84077 107.566 7.93452ZM112.951 6.31148C113.572 6.28413 114.087 6.12984 114.497 5.84859C114.912 5.56734 115.119 5.23726 115.119 4.85835C115.119 4.67085 115.064 4.52242 114.955 4.41304C114.849 4.30367 114.706 4.24898 114.527 4.24898C114.199 4.24898 113.892 4.43257 113.607 4.79976C113.326 5.16304 113.107 5.66695 112.951 6.31148ZM112.851 6.81538C112.851 6.8232 112.849 6.83687 112.845 6.8564C112.833 7.00093 112.828 7.10835 112.828 7.17867C112.828 7.67867 112.939 8.06538 113.162 8.33882C113.384 8.61226 113.701 8.74898 114.111 8.74898C114.376 8.74898 114.667 8.67867 114.984 8.53804C115.304 8.39351 115.64 8.18257 115.992 7.90523V8.63765C115.562 8.96968 115.134 9.22163 114.708 9.39351C114.287 9.56148 113.886 9.64546 113.507 9.64546C112.843 9.64546 112.324 9.44429 111.949 9.04195C111.574 8.6396 111.386 8.08101 111.386 7.36617C111.386 6.79585 111.501 6.2607 111.732 5.7607C111.966 5.2607 112.302 4.82515 112.74 4.45406C113.044 4.19624 113.38 3.99702 113.747 3.8564C114.115 3.71577 114.48 3.64546 114.843 3.64546C115.304 3.64546 115.667 3.76265 115.933 3.99702C116.199 4.2314 116.331 4.55171 116.331 4.95796C116.331 5.5439 116.056 6.00288 115.505 6.33492C114.958 6.66304 114.197 6.8271 113.22 6.8271C113.181 6.8271 113.121 6.82515 113.039 6.82124C112.956 6.81734 112.894 6.81538 112.851 6.81538ZM118.406 3.62202C118.636 3.66109 118.82 3.81538 118.956 4.08492C119.093 4.35445 119.212 4.81343 119.314 5.46187L119.724 8.07515C120.08 7.18452 120.402 6.3896 120.691 5.69038C120.98 4.98726 121.269 4.29781 121.558 3.62202H121.933L122.882 3.93843V4.2607L122.173 4.65327C121.814 5.13374 121.396 5.91499 120.919 6.99702C120.443 8.07906 120.08 8.84273 119.83 9.28804C119.298 10.2451 118.781 10.958 118.277 11.4267C117.777 11.8955 117.283 12.1298 116.794 12.1298C116.517 12.1298 116.281 12.038 116.085 11.8544C115.886 11.6748 115.787 11.4599 115.787 11.2099C115.787 11.0029 115.849 10.8271 115.974 10.6826C116.099 10.538 116.269 10.4443 116.484 10.4013L117.287 11.1572C117.556 11.1337 117.839 10.9599 118.136 10.6357C118.437 10.3154 118.749 9.84663 119.074 9.22945H118.622L117.902 5.42671C117.871 5.26265 117.83 5.10445 117.779 4.9521C117.728 4.79976 117.669 4.65718 117.603 4.52437L116.554 4.43062V4.03218L118.406 3.62202Z" fill="#221F20"/>
</svg>
