<svg width="51" height="81" viewBox="0 0 51 81" fill="none" xmlns="http://www.w3.org/2000/svg">
<path d="M46.2 41.57C46.63 41.57 46.93 41.57 47.23 41.57C48.39 41.53 49.39 41.98 50.28 42.67C51.23 43.41 51.21 44.64 50.22 45.33C49.69 45.7 49.07 45.98 48.45 46.18C46.75 46.72 44.98 46.78 43.22 46.9C42.67 46.94 42.13 47.02 41.65 47.07C41.13 47.9 40.68 48.69 40.16 49.43C39.17 50.84 37.79 51.34 36.12 51.04C33.97 50.66 32.55 49.25 31.41 47.55C30.86 46.73 31.05 45.74 31.33 44.82C31.4 44.58 31.51 44.36 31.6 44.13C31.21 43.9 30.84 43.67 30.4 43.41C30.5 44.07 30.6 44.71 30.71 45.35C31.11 47.8 31.52 50.24 31.91 52.7C32 53.3 32.04 53.91 32.05 54.51C32.07 55.37 31.84 56.16 31.16 56.74C30.49 57.3 29.8 57.84 29.02 58.46C29.02 58.53 29.03 58.75 29.07 58.96C29.42 61.09 29.45 63.24 29.46 65.39C29.46 66.1 29.6 66.82 29.72 67.52C29.87 68.34 30.29 69.02 31.02 69.45C31.82 69.93 32.64 70.39 33.48 70.81C35.28 71.72 37.1 72.57 38.89 73.49C40 74.06 40.91 74.92 41.78 75.82C42.55 76.62 42.86 77.6 42.89 78.68C42.91 79.63 42.58 80.02 41.68 80.29C40.26 80.72 38.8 80.72 37.34 80.84C34.32 81.09 31.35 80.78 28.4 80.07C27.33 79.81 26.24 79.6 25.15 79.46C24.39 79.36 24.03 78.97 23.9 78.26C23.8 77.69 23.67 77.13 23.55 76.57C23.49 76.57 23.43 76.57 23.37 76.57C23.29 76.75 23.21 76.93 23.15 77.11C22.62 78.5 21.69 79.53 20.27 80C19.58 80.23 18.81 80.26 18.08 80.3C16.55 80.39 15.06 80.08 13.58 79.77C11.72 79.38 9.86998 78.93 8.02998 78.45C5.71998 77.84 3.56999 76.83 1.57999 75.51C1.16999 75.24 0.79999 74.89 0.48999 74.52C0.0899901 74.04 0.0999914 73.76 0.459991 73.25C1.51999 71.78 2.80998 70.58 4.42998 69.7C7.20998 68.2 10.2 67.57 13.3 67.26C14.26 67.17 15.21 66.96 16.16 66.8C16.93 66.67 17.38 66.18 17.52 65.43C17.65 64.75 17.76 64.07 17.81 63.39C17.92 61.86 17.99 60.32 18.08 58.72C17.52 58.51 16.98 58.37 16.34 58.9C15.52 59.58 14.52 59.38 13.57 59.09C12.38 58.72 11.51 57.97 10.9 56.88C10.42 56.02 9.78998 55.22 9.69998 54.13C8.50998 53.89 7.89999 53.04 7.51999 52C7.44999 51.96 7.40999 51.91 7.35999 51.91C5.58999 51.91 4.40998 51.02 3.66998 49.46C3.16998 48.41 2.63998 47.39 2.53998 46.2C2.27998 42.83 3.61998 40.26 6.36998 38.37C7.53998 37.57 8.84998 37.06 10.29 36.71C10.26 36.34 10.25 35.99 10.21 35.65C9.93999 33.21 9.62998 30.77 9.39998 28.33C9.30998 27.35 9.43999 26.34 9.34999 25.36C9.21999 24.05 9.65998 22.86 9.97998 21.64C10.94 17.95 11.44 14.17 11.78 10.38C11.95 8.47 11.81 6.52 11.83 4.6C11.83 3.56 11.76 2.51001 12.04 1.48001C12.25 0.730005 12.61 0.62 13.22 1.1C14.37 1.99 14.89 3.22 15.35 4.55C16.54 8.04 18.13 11.33 20.39 14.27C21.72 15.99 23.33 17.41 25.06 18.7C25.32 18.9 25.58 19.11 25.83 19.33C26.16 19.61 26.29 19.96 26.36 20.4C26.48 21.21 26.76 22.01 26.9 22.82C27.29 25.02 27.64 27.23 28.02 29.43C28.5 32.26 28.98 35.09 29.47 37.92C29.52 38.22 29.59 38.51 29.67 38.87C30.12 38.64 30.5 38.44 30.91 38.22C30.93 37.72 30.94 37.2 30.99 36.68C31.13 34.96 31.87 33.51 33.05 32.27C34.03 31.24 35.26 31.14 36.37 32.06C36.83 32.44 37.2 32.93 37.63 33.4C37.99 32.54 38.35 31.66 38.71 30.78C39.26 29.45 39.77 28.11 40.36 26.8C40.65 26.15 40.77 25.49 40.79 24.8C40.86 22.34 41.99 20.49 44 19.14C44.68 18.68 45.4 18.26 46.11 17.84C47.84 16.84 49.47 15.82 50.29 13.93C50.36 13.77 50.48 13.59 50.61 13.3C50.6 13.49 50.61 13.68 50.56 13.86C50.34 15 50.03 16.12 49.92 17.27C49.82 18.3 49.93 19.36 49.96 20.4C49.98 21.17 50.07 21.94 50.07 22.71C50.05 24.67 49.27 26.28 47.77 27.55C47.57 27.72 47.38 27.95 47.27 28.19C46.49 29.83 45.73 31.49 44.94 33.21C46.23 33.62 47.13 34.41 47.41 35.8C47.69 37.16 47.08 38.2 46.25 39.21C46.97 39.94 46.78 40.71 46.27 41.58L46.2 41.57ZM23.22 47.41C25.97 47.09 28.41 47.93 30.89 49.21C30.6 47.66 30.34 46.2 30.05 44.75C30.02 44.6 29.83 44.44 29.68 44.36C29.05 44 28.39 43.77 27.65 43.72C25.89 43.6 24.13 43.53 22.37 43.77C21.84 43.84 21.31 43.85 20.73 43.61C21.21 43.09 21.88 43.31 22.41 43.03C22.24 42.22 22.05 41.45 21.92 40.66C21.68 39.3 21.69 38.93 21.9 38.25C22.22 39.85 22.31 41.46 22.79 42.93C24.44 42.95 26.02 42.98 27.63 43C27.53 41.69 27.19 40.42 27.51 39.13C27.72 40.46 27.94 41.79 28.15 43.08C28.73 43.33 29.25 43.55 29.91 43.83C29.21 39.92 28.56 36.13 27.86 32.34C27.15 28.52 26.92 24.63 25.98 20.84L25.4 20.96C25.5 21.45 25.61 21.9 25.69 22.36C25.77 22.81 25.8 23.27 25.57 23.82C25.41 23.04 25.2 22.39 25.14 21.72C25.08 20.97 24.68 20.54 24.07 20.2C23.61 19.94 23.17 19.94 22.74 20.2C22.48 20.36 22.25 20.56 22.02 20.76C21.29 21.4 20.54 22 19.63 22.36C19.51 22.41 19.42 22.51 19.32 22.58C19.39 23.26 19.54 23.9 19.36 24.53C19.3 24.53 19.25 24.54 19.19 24.55C19.1 23.95 19.01 23.34 18.91 22.72C18.84 22.72 18.75 22.68 18.68 22.7C17.55 23.04 16.56 22.69 15.62 22.09C15.36 21.93 15.12 21.74 14.84 21.63C14.6 21.54 14.29 21.46 14.05 21.52C13.42 21.69 12.96 22.14 12.56 22.65C12.25 23.04 12.43 23.44 12.47 23.84C12.49 24.06 12.54 24.28 12.56 24.5C12.62 25.4 12.76 26.3 12.51 27.21C12.36 26.05 12.21 24.89 12.04 23.56C11.33 24.34 10.76 25.1 9.79999 25.24C9.70999 26.11 10.69 35.87 10.95 36.59C11.2 36.56 11.47 36.52 11.74 36.49C12.49 36.42 13.21 36.45 13.86 36.95C14.67 37.57 14.84 38.65 14.15 39.42C13.86 39.74 13.49 40 13.12 40.23C12.61 40.55 12.08 40.82 11.54 41.12C11.73 42.47 11.71 43.8 12.08 45.19C12.28 44.98 12.38 44.88 12.47 44.78C12.58 44.66 12.69 44.53 12.81 44.42C14.33 42.94 16.02 41.84 18.23 41.72C19.37 41.66 20.05 42.09 20.24 43.2C20.31 43.61 20.24 44.05 20.24 44.49C22.73 45.01 23.17 45.42 23.22 47.39V47.41ZM45.79 39.48C45.28 39.74 44.83 39.99 44.36 40.2C43.5 40.58 42.63 40.92 41.66 40.89C41.18 40.87 40.8 40.71 40.55 40.3C40.02 39.42 40.08 38.25 40.71 37.41C41.43 36.45 42.26 35.61 43.4 35.15C43.69 35.03 43.81 34.85 43.92 34.58C44.2 33.86 44.53 33.16 44.85 32.46C45.49 31.09 46.15 29.72 46.8 28.35C46.92 28.09 47 27.81 47.11 27.52C45 27.03 43 26.56 40.97 26.08C40.88 26.26 40.79 26.42 40.71 26.6C39.91 28.51 39.16 30.43 38.31 32.32C37.84 33.37 37.69 34.37 37.91 35.51C38.12 36.57 37.99 37.66 37.49 38.65C37 39.63 36.06 40.12 34.97 40C34.76 39.98 34.54 39.93 34.32 39.9C34.09 40.34 33.92 40.78 33.65 41.16C32.87 42.28 32.37 43.54 31.89 44.8C31.45 45.95 31.45 47.16 32.44 48.1C33.2 48.81 33.96 49.59 34.86 50.08C36.66 51.04 38.69 50.79 39.93 48.89C40.59 47.89 41.07 46.82 41.49 45.71C41.58 45.47 41.7 45.24 41.8 45.01L41.98 45.06C41.95 45.51 41.92 45.95 41.88 46.38C43.16 46.26 44.39 46.17 45.62 46.02C46.47 45.92 47.32 45.8 48.14 45.58C48.71 45.43 49.29 45.17 49.78 44.84C50.5 44.37 50.46 43.6 49.78 43.06C48.64 42.16 47.33 41.99 45.95 42.13C45.78 42.15 45.61 42.29 45.45 42.39C44.66 42.89 43.89 43.42 43.08 43.88C42.25 44.35 41.35 44.57 40.38 44.5C39.28 44.41 38.7 43.91 38.66 42.9C38.63 42.17 38.82 41.47 39.29 40.89C39.48 40.65 39.69 40.39 40.27 40.51C40.02 40.81 39.83 41 39.67 41.23C39.33 41.72 39.19 42.28 39.24 42.88C39.28 43.44 39.47 43.72 40.03 43.77C40.62 43.83 41.28 43.88 41.81 43.68C42.76 43.33 43.67 42.84 44.52 42.3C45.04 41.97 45.46 41.46 45.84 40.96C46.17 40.55 46.21 40.05 45.78 39.51L45.79 39.48ZM9.75998 24.55C9.83998 24.6 9.92998 24.65 10.01 24.7C10.31 24.48 10.64 24.29 10.89 24.02C11.26 23.61 11.54 23.13 11.9 22.71C12.33 22.21 12.75 21.68 13.26 21.3C13.91 20.82 14.66 20.69 15.41 21.21C15.77 21.46 16.18 21.65 16.57 21.85C17.21 22.18 17.87 22.26 18.57 22.08C19.44 21.85 20.22 21.48 20.92 20.92C21.33 20.59 21.71 20.24 22.13 19.92C23.05 19.22 23.65 19.2 24.62 19.8C24.89 19.96 25.18 20.08 25.46 20.22C25.45 19.95 25.36 19.79 25.23 19.68C24.81 19.32 24.39 18.97 23.95 18.64C20.52 16.01 18.12 12.59 16.34 8.7C16.13 8.24 15.91 7.79 15.65 7.26C14.8 8.5 13.69 8.78 12.34 8.45C12.3 9.19 12.29 9.87 12.22 10.55C11.78 14.83 11.24 19.09 9.99998 23.23C9.86998 23.66 9.82999 24.12 9.73999 24.57L9.75998 24.55ZM12.26 45.56C12.6 45.88 12.89 46.13 13.15 46.42C14.6 48 14.72 49.89 13.46 51.61C12.62 52.75 11.7 53.81 10.2 54.22C10.32 54.56 10.37 54.86 10.52 55.11C10.91 55.77 11.33 56.42 11.76 57.06C12.33 57.92 13.21 58.31 14.16 58.55C15.38 58.85 16.38 58.39 17.03 57.31C17.42 56.66 17.31 56.28 16.58 56.06C16.13 55.92 15.67 55.87 15.21 55.77C14.94 55.71 14.65 55.68 14.7 55.18C14.91 55.16 15.14 55.12 15.37 55.13C15.81 55.15 16.25 55.24 16.69 55.22C18.16 55.16 19.51 54.75 20.61 53.72C21.03 53.33 21.31 52.86 21.32 52.27C21.32 51.73 21.11 51.46 20.56 51.38C19.68 51.26 18.81 51.21 17.93 51.44C17.26 51.61 16.59 51.75 15.91 51.87C15.77 51.89 15.6 51.74 15.44 51.67C15.54 51.53 15.62 51.32 15.76 51.27C16.15 51.14 16.56 51.08 16.97 50.98C18.24 50.69 19.47 50.32 20.62 49.69C21.5 49.21 22.16 48.53 22.5 47.58C22.89 46.52 22.53 45.74 21.47 45.34C20.22 44.87 19.11 45.27 18.04 45.86C18.05 47.03 18.21 48.17 17.33 49.23C17.33 48.1 17.38 47.11 17.33 46.13C17.28 45.07 16.45 44.43 15.86 43.64C16.98 43.6 17.27 44.66 17.92 45.23C18.36 44.99 18.79 44.8 19.18 44.55C19.71 44.22 19.85 43.74 19.66 43.11C19.49 42.54 19.11 42.2 18.51 42.23C17.83 42.27 17.12 42.32 16.48 42.53C14.8 43.09 13.46 44.19 12.24 45.55L12.26 45.56ZM10.67 37.1C8.98998 37.53 7.62998 37.96 6.44998 38.83C4.30998 40.41 3.00999 42.43 2.95999 45.16C2.92999 46.71 3.50998 48.06 4.19998 49.4C5.02998 51.01 6.64998 51.7 8.36998 51.13C8.80998 50.98 9.21999 50.73 9.60999 50.49C10.68 49.84 10.86 47.98 9.77998 47.13C9.49998 46.91 9.17998 46.74 8.86998 46.56C8.23998 46.19 7.70998 45.72 7.36998 45.06C6.84998 44.05 7.07999 42.99 8.04999 42.41C9.22999 41.71 10.47 41.11 11.68 40.45C12.31 40.11 12.95 39.79 13.53 39.37C14.21 38.88 14.31 38.03 13.75 37.51C13.47 37.25 13.05 37.02 12.67 37C11.91 36.96 11.14 37.07 10.66 37.1H10.67ZM49.43 16.65C49.62 15.33 49.24 17.97 49.43 16.65C49.37 16.62 49.31 16.59 49.25 16.57ZM48.83 16.31C48.6 16.47 48.52 16.53 48.44 16.58C47.43 17.25 46.43 17.93 45.42 18.6C44.71 19.08 43.96 19.5 43.3 20.04C41.51 21.49 40.97 23.49 40.91 25.7C42.67 26.1 44.38 26.5 46.1 26.89C47.5 27.21 47.51 27.22 48.36 26.04C49.74 24.13 49.61 21.99 49.21 19.82M33.75 33.56C33.65 33.98 33.6 34.24 33.53 34.49C33.17 35.74 33.18 36.98 33.59 38.23C33.82 38.93 34.26 39.34 35 39.43C35.76 39.53 36.37 39.28 36.75 38.62C36.95 38.27 37.12 37.88 37.21 37.48C37.45 36.42 37.39 35.34 37.15 34.28C36.96 33.43 36.46 32.76 35.76 32.29C35.05 31.82 34.18 31.67 33.56 32.31C32.53 33.38 31.67 34.55 31.47 36.08C31.37 36.86 31.34 37.66 31.27 38.51C31.05 38.6 30.76 38.71 30.49 38.83C29.84 39.11 29.7 39.35 29.81 40.03C29.89 40.57 29.97 41.12 30.08 41.66C30.29 42.64 30.97 43.17 31.87 43.58C32.13 43.06 32.34 42.63 32.55 42.2C31.29 41.2 30.82 40.09 31.34 39.24C31.48 40.26 31.88 41.06 32.65 41.65C33.14 41.16 33.53 40.49 33.84 39.65C32.5 38.11 32.39 35.08 33.75 33.55V33.56ZM31.5 53.52C31.36 52.46 31.24 51.45 31.08 50.45C31.05 50.25 30.85 50.01 30.66 49.9C28.5 48.59 26.17 47.83 23.62 47.83C23.25 47.83 23.01 47.87 22.84 48.25C22.43 49.16 21.71 49.8 20.83 50.26C20.66 50.35 20.5 50.47 20.17 50.69C21.71 50.72 22.04 51.6 22 52.71C25.21 52.46 28.31 52.61 31.51 53.51L31.5 53.52ZM23.66 58.36C23.79 57.81 23.87 57.29 24.02 56.8C24.35 55.77 25.05 55.12 26.1 54.87C27.02 54.64 27.57 54.87 28.04 55.7C28.28 56.13 28.45 56.6 28.65 57.05C28.73 57.24 28.81 57.44 28.89 57.62C29.77 57.37 31.03 56.32 31.36 55.6C31.69 54.88 31.6 54.46 30.88 54.11C30.32 53.84 29.7 53.62 29.09 53.53C26.99 53.23 24.9 52.91 22.76 53.02C22.23 53.05 21.81 53.13 21.47 53.68C21.17 54.17 20.65 54.59 20.14 54.87C19.38 55.29 18.54 55.56 17.7 55.91C18.13 56.7 17.78 57.41 17.28 58.13C17.65 58.18 17.92 58.21 18.21 58.25C18.31 57.94 18.37 57.67 18.48 57.43C18.63 57.08 18.78 56.71 19.01 56.41C19.61 55.64 20.67 55.75 21.1 56.63C21.25 56.94 21.3 57.31 21.37 57.65C21.42 57.91 21.43 58.17 21.46 58.47C22.25 58.43 22.96 58.39 23.66 58.35V58.36ZM44.93 34.49C45.17 35.12 45.16 35.22 44.54 35.33C43.02 35.6 41.99 36.53 41.11 37.71C40.72 38.24 40.62 38.79 40.78 39.42C41 40.22 41.28 40.41 42.08 40.29C43.33 40.1 44.45 39.58 45.48 38.88C46.78 37.98 47.16 36.3 46.44 34.92C46.07 34.23 45.41 33.9 44.74 33.46C44.51 33.95 44.31 34.39 44.1 34.82C44.14 34.85 44.17 34.89 44.21 34.92C44.45 34.78 44.68 34.63 44.92 34.49H44.93ZM7.91998 52C8.21998 52.38 8.44999 52.85 8.81999 53.13C9.37999 53.54 10.01 53.76 10.74 53.37C11.72 52.84 12.42 52.04 13.03 51.15C14.49 49.03 13.17 45.93 10.61 45.49C9.99999 45.39 9.37999 45.34 8.79999 45.87C9.12999 46.05 9.38998 46.2 9.64998 46.34C11.51 47.37 11.52 50.13 9.69998 51.1C9.14998 51.4 8.57998 51.66 7.91998 51.99V52ZM21.48 58.92C21.44 59.57 21.37 60.09 21.39 60.61C21.45 62.42 21.55 64.24 21.62 66.05C21.68 67.55 22.01 69 22.47 70.42C22.58 70.78 22.67 71.19 23.12 71.46C23.35 67.22 23.88 63.06 23.36 58.82C22.78 58.85 22.15 58.88 21.48 58.92ZM11.06 41.33C10.06 41.89 9.13998 42.37 8.25998 42.9C7.67998 43.25 7.50999 43.82 7.71999 44.47C7.86999 44.91 8.06998 45.33 8.52998 45.57C9.40998 44.91 10.42 45 11.46 45.14C11.32 43.85 11.2 42.66 11.06 41.33Z" fill="#221F20"/>
<path d="M23.21 47.42C23.16 45.45 22.72 45.04 20.23 44.52C20.23 44.08 20.31 43.64 20.23 43.23C20.04 42.12 19.36 41.69 18.22 41.75C16.01 41.87 14.32 42.97 12.8 44.45C12.68 44.57 12.58 44.69 12.46 44.81C12.37 44.91 12.27 45.01 12.07 45.22C11.7 43.83 11.71 42.5 11.53 41.15C12.06 40.85 12.6 40.58 13.11 40.26C13.48 40.03 13.85 39.77 14.14 39.45C14.83 38.69 14.66 37.6 13.85 36.98C13.2 36.49 12.48 36.45 11.73 36.52C11.46 36.55 11.19 36.59 10.94 36.62C10.69 35.9 9.69997 26.14 9.78997 25.27C10.75 25.13 11.33 24.36 12.03 23.59C12.2 24.91 12.35 26.07 12.5 27.24C12.75 26.33 12.62 25.43 12.55 24.53C12.53 24.31 12.48 24.09 12.46 23.87C12.43 23.47 12.25 23.07 12.55 22.68C12.95 22.17 13.4 21.72 14.04 21.55C14.28 21.49 14.58 21.56 14.83 21.66C15.11 21.77 15.36 21.96 15.61 22.12C16.55 22.72 17.54 23.06 18.67 22.73C18.74 22.71 18.83 22.74 18.9 22.75C18.99 23.37 19.09 23.97 19.18 24.58C19.24 24.58 19.29 24.57 19.35 24.56C19.53 23.93 19.38 23.29 19.31 22.61C19.4 22.54 19.5 22.43 19.62 22.39C20.53 22.03 21.28 21.42 22.01 20.79C22.24 20.59 22.47 20.39 22.73 20.23C23.16 19.96 23.6 19.97 24.06 20.23C24.67 20.57 25.06 21 25.13 21.75C25.19 22.42 25.39 23.07 25.56 23.85C25.8 23.3 25.76 22.84 25.68 22.39C25.6 21.93 25.49 21.48 25.39 20.99L25.97 20.87C26.9 24.66 27.14 28.55 27.85 32.37C28.55 36.16 29.21 39.95 29.9 43.86C29.24 43.58 28.72 43.36 28.14 43.11C27.93 41.82 27.72 40.49 27.5 39.16C27.19 40.46 27.52 41.73 27.62 43.03C26.02 43.01 24.43 42.98 22.78 42.96C22.3 41.48 22.21 39.88 21.89 38.28C21.68 38.96 21.67 39.32 21.91 40.69C22.05 41.47 22.23 42.24 22.4 43.06C21.87 43.33 21.2 43.11 20.72 43.64C21.29 43.88 21.82 43.88 22.36 43.8C24.12 43.56 25.88 43.63 27.64 43.75C28.38 43.8 29.04 44.03 29.67 44.39C29.82 44.48 30.01 44.63 30.04 44.78C30.33 46.23 30.59 47.68 30.88 49.24C28.4 47.96 25.96 47.12 23.21 47.44V47.42ZM25.11 29.71C24.97 30.14 24.91 30.51 24.73 30.81C24.36 31.45 24.01 32.12 23.52 32.67C22.37 33.98 21.12 34.14 19.51 33.27C18.22 32.58 17.24 31.55 16.37 30.45C16.38 30.11 16.93 30.02 16.59 29.56C16.01 29.63 15.5 29.87 15.13 30.39C15.11 30.42 15.15 30.49 15.17 30.58C15.39 30.61 15.62 30.64 15.78 30.66C16.61 31.91 17.57 32.93 18.79 33.67C19.3 33.98 19.88 34.21 20.45 34.37C21.63 34.71 22.69 34.37 23.59 33.57C24.39 32.86 24.95 31.98 25.32 30.98C25.55 30.35 25.78 29.71 26.03 29.02C25.45 28.74 24.84 28.98 24.24 29.03C24.19 29.03 24.1 29.21 24.12 29.29C24.13 29.38 24.23 29.5 24.31 29.53C24.54 29.61 24.79 29.64 25.11 29.71ZM18.17 28.55C18.28 28.76 18.43 29.21 18.71 29.56C19.09 30.02 19.57 29.92 19.8 29.38C19.9 29.16 19.97 28.91 19.98 28.67C20.04 27.63 19.77 26.65 19.26 25.76C19.15 25.58 18.88 25.35 18.71 25.38C18.54 25.41 18.35 25.68 18.26 25.89C17.95 26.68 17.98 27.5 18.15 28.56L18.17 28.55ZM23.31 26.72C23.16 26.34 23.03 25.95 22.86 25.57C22.74 25.31 22.55 25.13 22.21 25.18C21.88 25.24 21.66 25.39 21.57 25.73C21.29 26.82 21.46 27.86 21.9 28.87C22.02 29.15 22.22 29.39 22.59 29.36C22.95 29.32 23.1 29.07 23.2 28.77C23.44 28.1 23.42 27.42 23.31 26.72Z" fill="white"/>
<path d="M25.11 29.7C24.79 29.63 24.54 29.6 24.31 29.52C24.23 29.49 24.13 29.37 24.12 29.28C24.11 29.2 24.19 29.02 24.24 29.02C24.84 28.97 25.45 28.73 26.03 29.01C25.78 29.71 25.55 30.34 25.32 30.97C24.96 31.97 24.39 32.85 23.59 33.56C22.69 34.35 21.64 34.7 20.45 34.36C19.87 34.19 19.3 33.97 18.79 33.66C17.57 32.92 16.61 31.9 15.78 30.65C15.62 30.63 15.39 30.6 15.17 30.57C15.15 30.47 15.11 30.4 15.13 30.38C15.5 29.86 16.01 29.62 16.59 29.55C16.93 30.01 16.38 30.1 16.37 30.44C17.24 31.54 18.22 32.57 19.51 33.26C21.12 34.13 22.37 33.96 23.52 32.66C24 32.11 24.36 31.44 24.73 30.8C24.9 30.5 24.96 30.13 25.11 29.7Z" fill="#221F20"/>
<path d="M18.17 28.54C18 27.48 17.97 26.66 18.28 25.87C18.36 25.66 18.55 25.39 18.73 25.36C18.89 25.34 19.17 25.56 19.28 25.74C19.79 26.64 20.06 27.61 20 28.65C19.99 28.89 19.91 29.14 19.82 29.36C19.58 29.9 19.1 30.01 18.73 29.54C18.45 29.19 18.29 28.74 18.19 28.53L18.17 28.54Z" fill="#221F20"/>
<path d="M23.31 26.71C23.42 27.41 23.44 28.09 23.2 28.76C23.1 29.06 22.94 29.31 22.59 29.35C22.22 29.39 22.02 29.15 21.9 28.86C21.46 27.85 21.29 26.81 21.57 25.72C21.66 25.38 21.87 25.23 22.21 25.17C22.55 25.11 22.74 25.3 22.86 25.56C23.03 25.93 23.16 26.32 23.31 26.71Z" fill="#221F20"/>
</svg>
