<svg width="512" height="512" viewBox="0 0 512 512" fill="none" xmlns="http://www.w3.org/2000/svg">
<path d="M0 224C0 241.7 14.3 256 32 256C49.7 256 64 241.7 64 224C64 171 107 128 160 128H320V160C320 172.9 327.8 184.6 339.8 189.6C351.8 194.6 365.5 191.8 374.7 182.7L438.7 118.7C451.2 106.2 451.2 85.9 438.7 73.4L374.7 9.39999C365.5 0.199994 351.8 -2.50001 339.8 2.49999C327.8 7.49999 320 19.1 320 32V64H160C71.6 64 0 135.6 0 224ZM512 288C512 270.3 497.7 256 480 256C462.3 256 448 270.3 448 288C448 341 405 384 352 384H192V352C192 339.1 184.2 327.4 172.2 322.4C160.2 317.4 146.5 320.2 137.3 329.3L73.3 393.3C60.8 405.8 60.8 426.1 73.3 438.6L137.3 502.6C146.5 511.8 160.2 514.5 172.2 509.5C184.2 504.5 192 492.9 192 479.9V448H352C440.4 448 512 376.4 512 288Z" fill="white"/>
</svg>
